# xmcd
#
# Track frame offsets:
# 150
# 18132
# 32521
# 47905
# 61937
# 83134
# 97286
# 110889
# 124890
# 140456
# 157823
# 172365
# 185788
# 204499
#
# Disc length: 2950 seconds
#
#
# Revision: 0
# Processed by: cddbd v1.5.2PL0 Copyright (c) Steve Scherf et al.
# Submitted via: FreeRIP 2.95 
#
DISCID=c90b840e
DTITLE=Bruno and Marrone - Bruno and Marrone Acústico II - Vol. 2 
DYEAR=2007
DGENRE=Sertanejo
TTITLE0=Lágrimas e Vinho
TTITLE1=Só de Você
TTITLE2=Abafa o Caso Part. Esp.: Alexandre Pires
TTITLE3=Recaída
TTITLE4=Dona do Meu Sentimento
TTITLE5=Carnaval
TTITLE6=Hoje Eu Não Tô pra Ninguém
TTITLE7=Um Beijo e Tchau
TTITLE8=Vou Pedir a Deus Você
TTITLE9=Sem Você
TTITLE10=Chalana.. - Part. Esp.: Milionário e José Rico
TTITLE11=Pensa Num Trem Bão
TTITLE12=Borbulhas de Amor
TTITLE13=Pra Não Morrer de Amor
EXTD=
EXTT0=
EXTT1=
EXTT2=
EXTT3=
EXTT4=
EXTT5=
EXTT6=
EXTT7=
EXTT8=
EXTT9=
EXTT10=
EXTT11=
EXTT12=
EXTT13=
PLAYORDER=
